<svg version="1.2" baseProfile="tiny-ps" xmlns="http://www.w3.org/2000/svg" viewBox="0 0 720 721" width="16" height="16">
	<title>Capa 1</title>
	<style>
		tspan { white-space:pre }
		.shp0 { fill: #000000 } 
	</style>
	<g id="Capa 1">
		<g id="&lt;Group&gt;">
			<path id="&lt;Compound Path&gt;" fill-rule="evenodd" class="shp0" d="M720 120.39L720 600.39C720 666.66 666.27 720.39 600 720.39L120 720.39C53.73 720.39 0 666.66 0 600.39L0 120.39C0 54.12 53.73 0.39 120 0.39L600 0.39C666.27 0.39 720 54.12 720 120.39ZM60 120.39L60 390.39L168.99 390.39C180.13 390.39 190.35 396.56 195.54 406.41L247.8 505.41L472.2 505.41L524.46 406.41C529.65 396.56 539.87 390.39 551.01 390.39L660 390.39L660 120.39C660 87.25 633.14 60.39 600 60.39L120 60.39C86.86 60.39 60 87.25 60 120.39ZM660 600.39L660 450.39L569.13 450.39L516.87 549.39C511.68 559.24 501.46 565.41 490.32 565.41L229.68 565.41C218.54 565.41 208.32 559.24 203.13 549.39L150.87 450.39L60 450.39L60 600.39C60 633.53 86.86 660.39 120 660.39L600 660.39C633.14 660.39 660 633.53 660 600.39Z" />
		</g>
		<path id="&lt;Path&gt;" class="shp0" d="M454.82 325.69L378.25 402.26C375.82 404.59 372.96 406.41 369.83 407.62C363.65 410.35 356.61 410.35 350.43 407.62C347.3 406.41 344.43 404.59 342.01 402.26L265.44 325.69C255.43 315.69 255.43 299.46 265.44 289.45C275.44 279.44 291.67 279.44 301.68 289.45L334.35 321.61L334.35 154.6C334.35 140.5 345.78 129.07 359.87 129.07C373.97 129.07 385.4 140.5 385.4 154.6L385.4 321.61L418.32 288.43C428.33 278.42 444.55 278.42 454.56 288.43C464.57 298.44 464.57 314.67 454.56 324.67L454.82 325.69Z" />
	</g>
</svg>