<svg version="1.2" baseProfile="tiny-ps" xmlns="http://www.w3.org/2000/svg" viewBox="0 0 900 900" width="16" height="16">
	<title>Capa 1</title>
	<style>
		tspan { white-space:pre }
		.shp0 { fill: #000000 } 
	</style>
	<g id="Capa 1">
		<g id="&lt;Group&gt;">
			<g id="&lt;Group&gt;">
				<g id="&lt;Group&gt;">
					<path id="&lt;Compound Path&gt;" fill-rule="evenodd" class="shp0" d="M450.55 182.18C543.82 182.18 619.64 258 619.64 351.27C619.64 444.54 543.82 520.36 450.55 520.36C356.73 520.36 280.91 444.54 280.91 351.27C280.91 258 356.73 182.18 450.55 182.18ZM450.55 438.55C498.55 438.55 537.82 399.28 537.82 351.28C537.82 303.28 498.55 264 450.55 264C402 264 362.73 303.27 362.73 351.27C362.73 399.27 402 438.55 450.55 438.55Z" />
					<path id="&lt;Compound Path&gt;" fill-rule="evenodd" class="shp0" d="M704.18 820.91C632.18 871.09 544.36 900 450 900C355.09 900 267.27 871.09 194.73 820.36C76.91 739.64 0 603.82 0 450C0 201.27 201.27 0 450 0C698.18 0 899.45 201.27 900 450C899.45 603.82 822 740.18 704.18 820.91ZM710.18 189.27C643.09 122.73 551.45 81.82 450 81.82C348 81.82 256.36 122.73 189.27 189.27C122.73 256.36 81.82 348 81.82 450C81.82 549.27 121.09 639.27 185.46 705.82L187.64 682.37L188.19 681.28C196.92 607.1 260.19 552.01 334.37 552.01L564.55 552.01C638.73 552.01 700.37 606.56 710.73 679.1L711.28 681.28L714.01 705.83C778.36 639.27 817.64 549.27 818.18 450C817.64 348 776.73 256.36 710.18 189.27ZM464.18 817.09C527.45 815.45 586.36 796.91 637.09 766.36L637.09 765.81L629.45 689.45C624 657.27 596.72 633.81 564.54 633.81L334.36 633.81C301.63 633.81 273.81 657.81 268.91 690.54L269.46 690.54L261.82 765.81C315.27 797.99 377.46 817.08 444 817.63C444.55 818.18 444.55 818.18 445.09 817.63C446.73 818.18 448.36 818.18 450 818.18C454.36 818.18 458.18 818.18 462.55 817.09C463.09 817.09 463.64 817.09 464.18 817.09Z" />
				</g>
			</g>
		</g>
	</g>
</svg>